<?xml version="1.0" encoding="UTF-8" standalone="no"?><svg xmlns="http://www.w3.org/2000/svg" xmlns:xlink="http://www.w3.org/1999/xlink" contentScriptType="application/ecmascript" contentStyleType="text/css" height="224px" preserveAspectRatio="none" style="width:602px;height:224px;" version="1.1" viewBox="0 0 602 224" width="602px" zoomAndPan="magnify"><defs><filter height="300%" id="f7a11izs19byb" width="300%" x="-1" y="-1"><feGaussianBlur result="blurOut" stdDeviation="2.0"/><feColorMatrix in="blurOut" result="blurOut2" type="matrix" values="0 0 0 0 0 0 0 0 0 0 0 0 0 0 0 0 0 0 .4 0"/><feOffset dx="4.0" dy="4.0" in="blurOut2" result="blurOut3"/><feBlend in="SourceGraphic" in2="blurOut3" mode="normal"/></filter></defs><g><!--entity SphinxProject--><polygon fill="#FEFECE" filter="url(#f7a11izs19byb)" points="6,31.5,6,67.5986,112,67.5986,112,41.5,102,31.5,6,31.5" style="stroke: #000000; stroke-width: 1.5;"/><path d="M102,31.5 L102,41.5 L112,41.5 " fill="#FEFECE" style="stroke: #000000; stroke-width: 1.5;"/><text fill="#000000" font-family="sans-serif" font-size="14" lengthAdjust="spacingAndGlyphs" textLength="86" x="16" y="54.6318">SphinxProject</text><!--entity .rst--><polygon fill="#FEFECE" filter="url(#f7a11izs19byb)" points="147,31.5,147,67.5986,187,67.5986,187,41.5,177,31.5,147,31.5" style="stroke: #000000; stroke-width: 1.5;"/><path d="M177,31.5 L177,41.5 L187,41.5 " fill="#FEFECE" style="stroke: #000000; stroke-width: 1.5;"/><text fill="#000000" font-family="sans-serif" font-size="14" lengthAdjust="spacingAndGlyphs" textLength="20" x="157" y="54.6318">.rst</text><!--entity .pot--><path d="M337,37 C337,27 359,27 359,27 C359,27 381,27 381,37 L381,62.0986 C381,72.0986 359,72.0986 359,72.0986 C359,72.0986 337,72.0986 337,62.0986 L337,37 " fill="#FEFECE" filter="url(#f7a11izs19byb)" style="stroke: #000000; stroke-width: 1.5;"/><path d="M337,37 C337,47 359,47 359,47 C359,47 381,47 381,37 " fill="none" style="stroke: #000000; stroke-width: 1.5;"/><text fill="#000000" font-family="sans-serif" font-size="14" lengthAdjust="spacingAndGlyphs" textLength="24" x="347" y="64.1318">.pot</text><!--entity .po--><path d="M455,37 C455,27 475,27 475,27 C475,27 495,27 495,37 L495,62.0986 C495,72.0986 475,72.0986 475,72.0986 C475,72.0986 455,72.0986 455,62.0986 L455,37 " fill="#FEFECE" filter="url(#f7a11izs19byb)" style="stroke: #000000; stroke-width: 1.5;"/><path d="M455,37 C455,47 475,47 475,47 C475,47 495,47 495,37 " fill="none" style="stroke: #000000; stroke-width: 1.5;"/><text fill="#000000" font-family="sans-serif" font-size="14" lengthAdjust="spacingAndGlyphs" textLength="20" x="465" y="64.1318">.po</text><!--entity .mo--><path d="M373.5,177 C373.5,167 395,167 395,167 C395,167 416.5,167 416.5,177 L416.5,202.0986 C416.5,212.0986 395,212.0986 395,212.0986 C395,212.0986 373.5,212.0986 373.5,202.0986 L373.5,177 " fill="#FEFECE" filter="url(#f7a11izs19byb)" style="stroke: #000000; stroke-width: 1.5;"/><path d="M373.5,177 C373.5,187 395,187 395,187 C395,187 416.5,187 416.5,177 " fill="none" style="stroke: #000000; stroke-width: 1.5;"/><text fill="#000000" font-family="sans-serif" font-size="14" lengthAdjust="spacingAndGlyphs" textLength="23" x="383.5" y="204.1318">.mo</text><!--entity translator--><ellipse cx="560" cy="18" fill="#FEFECE" filter="url(#f7a11izs19byb)" rx="8" ry="8" style="stroke: #A80036; stroke-width: 2.0;"/><path d="M560,26 L560,53 M547,34 L573,34 M560,53 L547,68 M560,53 L573,68 " fill="none" filter="url(#f7a11izs19byb)" style="stroke: #A80036; stroke-width: 2.0;"/><text fill="#000000" font-family="sans-serif" font-size="14" lengthAdjust="spacingAndGlyphs" textLength="60" x="530" y="88.1318">translator</text><!--entity TranslatedBuild--><polygon fill="#FEFECE" filter="url(#f7a11izs19byb)" points="202.5,171.5,202.5,207.5986,321.5,207.5986,321.5,181.5,311.5,171.5,202.5,171.5" style="stroke: #000000; stroke-width: 1.5;"/><path d="M311.5,171.5 L311.5,181.5 L321.5,181.5 " fill="#FEFECE" style="stroke: #000000; stroke-width: 1.5;"/><text fill="#000000" font-family="sans-serif" font-size="14" lengthAdjust="spacingAndGlyphs" textLength="99" x="212.5" y="194.6318">TranslatedBuild</text><!--link .po to translator--><path d="M500.3972,49.5 C510.2325,49.5 520.0678,49.5 529.9032,49.5 " fill="none" id=".po-translator" style="stroke: #A80036; stroke-width: 1.0;"/><polygon fill="#A80036" points="495.2539,49.5,504.2539,53.5,500.2539,49.5,504.2539,45.5,495.2539,49.5" style="stroke: #A80036; stroke-width: 1.0;"/><!--link SphinxProject to .rst--><path d="M112.1563,49.5 C122.0076,49.5 131.859,49.5 141.7104,49.5 " fill="none" id="SphinxProject-.rst" style="stroke: #A80036; stroke-width: 1.0;"/><polygon fill="#A80036" points="146.8621,49.5,137.8621,45.5,141.8621,49.5,137.8621,53.5,146.8621,49.5" style="stroke: #A80036; stroke-width: 1.0;"/><!--link .rst to .pot--><path d="M187.1845,49.5 C221.8302,49.5 292.6458,49.5 331.676,49.5 " fill="none" id=".rst-.pot" style="stroke: #A80036; stroke-width: 1.0;"/><polygon fill="#A80036" points="336.7347,49.5,327.7347,45.5,331.7347,49.5,327.7347,53.5,336.7347,49.5" style="stroke: #A80036; stroke-width: 1.0;"/><text fill="#000000" font-family="sans-serif" font-size="13" lengthAdjust="spacingAndGlyphs" textLength="113" x="205.5" y="43.6938">sphinx-build gettext</text><!--link .pot to .po--><path d="M381.0918,49.5 C400.726,49.5 429.4114,49.5 449.9055,49.5 " fill="none" id=".pot-.po" style="stroke: #A80036; stroke-width: 1.0;"/><polygon fill="#A80036" points="454.9288,49.5,445.9288,45.5,449.9288,49.5,445.9288,53.5,454.9288,49.5" style="stroke: #A80036; stroke-width: 1.0;"/><text fill="#000000" font-family="sans-serif" font-size="13" lengthAdjust="spacingAndGlyphs" textLength="37" x="399.5" y="43.6938">Pootle</text><!--link .po to .mo--><path d="M461.9686,72.305 C447.9056,96.9151 425.5182,136.0932 410.5467,162.2933 " fill="none" id=".po-.mo" style="stroke: #A80036; stroke-width: 1.0;"/><polygon fill="#A80036" points="408.0259,166.7048,415.9642,160.8753,410.5066,162.3636,409.0183,156.9061,408.0259,166.7048" style="stroke: #A80036; stroke-width: 1.0;"/><text fill="#000000" font-family="sans-serif" font-size="13" lengthAdjust="spacingAndGlyphs" textLength="43" x="434" y="134.1938">msgfmt</text><!--link TranslatedBuild to .mo--><path d="M326.9772,189.5 C342.4024,189.5 357.8276,189.5 373.2527,189.5 " fill="none" id="TranslatedBuild-.mo" style="stroke: #A80036; stroke-width: 1.0;"/><polygon fill="#A80036" points="321.7461,189.5,330.7461,193.5,326.7461,189.5,330.7461,185.5,321.7461,189.5" style="stroke: #A80036; stroke-width: 1.0;"/><!--link .rst to TranslatedBuild--><path d="M179.2251,67.5159 C196.4449,92.8925 227.8341,139.1503 246.6178,166.8315 " fill="none" id=".rst-TranslatedBuild" style="stroke: #A80036; stroke-width: 1.0;"/><polygon fill="#A80036" points="249.5202,171.1086,247.7765,161.4153,246.7127,166.9712,241.1568,165.9074,249.5202,171.1086" style="stroke: #A80036; stroke-width: 1.0;"/><text fill="#000000" font-family="sans-serif" font-size="13" lengthAdjust="spacingAndGlyphs" textLength="143" x="227" y="134.1938">sphinx-buid -Dlanguage=</text><!--
@startuml
file "SphinxProject"
file ".rst"
database ".pot"
database ".po"
database ".mo"
actor translator
file TranslatedBuild
translator -l-> .po
SphinxProject -r-> .rst
.rst -r-> .pot : sphinx-build gettext
.pot -r-> .po : Pootle
.po -d-> .mo : msgfmt
.mo -l-> TranslatedBuild
.rst -d-> TranslatedBuild : "sphinx-buid -Dlanguage="
@enduml

PlantUML version 1.2018.13(Mon Nov 26 18:11:51 CET 2018)
(GPL source distribution)
Java Runtime: OpenJDK Runtime Environment
JVM: OpenJDK 64-Bit Server VM
Java Version: 11.0.6+10-post-Ubuntu-1ubuntu119.10.1
Operating System: Linux
OS Version: 5.3.0-40-generic
Default Encoding: UTF-8
Language: en
Country: US
--></g></svg>