<svg xmlns="http://www.w3.org/2000/svg" xmlns:xlink="http://www.w3.org/1999/xlink" contentStyleType="text/css" data-diagram-type="DESCRIPTION" height="240.625px" preserveAspectRatio="none" style="width:667px;height:240px;" version="1.1" viewBox="0 0 667 240" width="667.7083px" zoomAndPan="magnify"><defs/><g><!--entity SphinxProject--><g class="entity" data-entity="SphinxProject" data-source-line="4" data-uid="ent0002" id="entity_SphinxProject"><path d="M6.25,34.8958 L6.25,59.9666 A7.8125,7.8125 0 0 0 14.0625,67.7791 L117.6059,67.7791 A7.8125,7.8125 0 0 0 125.4184,59.9666 L125.4184,37.5 L115.0017,27.0833 L14.0625,27.0833 A7.8125,7.8125 0 0 0 6.25,34.8958" fill="#C9FFC9" style="stroke:#859900;stroke-width:2.0833;"/><path d="M115.0017,27.0833 L115.0017,29.6875 A7.8125,7.8125 0 0 0 122.8142,37.5 L125.4184,37.5" fill="#C9FFC9" style="stroke:#859900;stroke-width:2.0833;"/><text fill="#000000" font-family="Dejavu Serif" font-size="14.5833" lengthAdjust="spacing" textLength="46.4769" x="16.6667" y="53.0895">Sphinx</text><text fill="#000000" font-family="Dejavu Serif" font-size="14.5833" lengthAdjust="spacing" textLength="3.7917" x="63.1436" y="53.0895">&#160;</text><text fill="#000000" font-family="Dejavu Serif" font-size="14.5833" lengthAdjust="spacing" textLength="48.0665" x="66.9352" y="53.0895">project</text></g><!--entity .rst--><g class="entity" data-entity=".rst" data-source-line="5" data-uid="ent0003" id="entity_.rst"><path d="M162.0313,34.8958 L162.0313,59.9666 A7.8125,7.8125 0 0 0 169.8438,67.7791 L197.2333,67.7791 A7.8125,7.8125 0 0 0 205.0458,59.9666 L205.0458,37.5 L194.6291,27.0833 L169.8438,27.0833 A7.8125,7.8125 0 0 0 162.0313,34.8958" fill="#C9FFC9" style="stroke:#859900;stroke-width:2.0833;"/><path d="M194.6291,27.0833 L194.6291,29.6875 A7.8125,7.8125 0 0 0 202.4416,37.5 L205.0458,37.5" fill="#C9FFC9" style="stroke:#859900;stroke-width:2.0833;"/><text fill="#000000" font-family="Dejavu Serif" font-size="14.5833" lengthAdjust="spacing" textLength="22.1812" x="172.4479" y="53.0895">.rst</text></g><!--entity .pot--><g class="entity" data-entity=".pot" data-source-line="6" data-uid="ent0004" id="entity_.pot"><path d="M370.0625,32.8125 C370.0625,22.3958 393.9614,22.3958 393.9614,22.3958 C393.9614,22.3958 417.8603,22.3958 417.8603,32.8125 L417.8603,62.0499 C417.8603,72.4666 393.9614,72.4666 393.9614,72.4666 C393.9614,72.4666 370.0625,72.4666 370.0625,62.0499 L370.0625,32.8125" fill="#EFEFFF" style="stroke:#6C71C4;stroke-width:2.0833;"/><path d="M370.0625,32.8125 C370.0625,43.2292 393.9614,43.2292 393.9614,43.2292 C393.9614,43.2292 417.8603,43.2292 417.8603,32.8125" fill="none" style="stroke:#6C71C4;stroke-width:2.0833;"/><text fill="#000000" font-family="Dejavu Serif" font-size="14.5833" lengthAdjust="spacing" textLength="26.9645" x="380.4792" y="62.9853">.pot</text></g><!--entity .po--><g class="entity" data-entity=".po" data-source-line="7" data-uid="ent0005" id="entity_.po"><path d="M514.3542,32.8125 C514.3542,22.3958 535.6208,22.3958 535.6208,22.3958 C535.6208,22.3958 556.8874,22.3958 556.8874,32.8125 L556.8874,62.0499 C556.8874,72.4666 535.6208,72.4666 535.6208,72.4666 C535.6208,72.4666 514.3542,72.4666 514.3542,62.0499 L514.3542,32.8125" fill="#EFEFFF" style="stroke:#6C71C4;stroke-width:2.0833;"/><path d="M514.3542,32.8125 C514.3542,43.2292 535.6208,43.2292 535.6208,43.2292 C535.6208,43.2292 556.8874,43.2292 556.8874,32.8125" fill="none" style="stroke:#6C71C4;stroke-width:2.0833;"/><text fill="#000000" font-family="Dejavu Serif" font-size="14.5833" lengthAdjust="spacing" textLength="21.6999" x="524.7708" y="62.9853">.po</text></g><!--entity .mo--><g class="entity" data-entity=".mo" data-source-line="8" data-uid="ent0006" id="entity_.mo"><path d="M418.2708,183.4063 C418.2708,172.9896 441.8708,172.9896 441.8708,172.9896 C441.8708,172.9896 465.4707,172.9896 465.4707,183.4063 L465.4707,212.6437 C465.4707,223.0603 441.8708,223.0603 441.8708,223.0603 C441.8708,223.0603 418.2708,223.0603 418.2708,212.6437 L418.2708,183.4063" fill="#EFEFFF" style="stroke:#6C71C4;stroke-width:2.0833;"/><path d="M418.2708,183.4063 C418.2708,193.8229 441.8708,193.8229 441.8708,193.8229 C441.8708,193.8229 465.4707,193.8229 465.4707,183.4063" fill="none" style="stroke:#6C71C4;stroke-width:2.0833;"/><text fill="#000000" font-family="Dejavu Serif" font-size="14.5833" lengthAdjust="spacing" textLength="26.3666" x="428.6875" y="213.5791">.mo</text></g><!--entity translator--><g class="entity" data-entity="translator" data-source-line="9" data-uid="ent0007" id="entity_translator"><ellipse cx="627.2916" cy="22.9167" fill="#FFFFCC" rx="16.6667" ry="16.6667" style="stroke:#B58900;stroke-width:2.0833;"/><path d="M627.2916,43.75 C631.4582,43.75 634.5832,43.75 638.7499,39.5833 C647.0832,39.5833 655.4166,47.9167 655.4166,56.25 L655.4166,60.4167 C655.4166,64.5833 651.2499,68.75 647.0832,68.75 L607.4999,68.75 C603.3332,68.75 599.1666,64.5833 599.1666,60.4167 L599.1666,56.25 C599.1666,47.9167 607.4999,39.5833 615.8332,39.5833 C619.9999,43.75 623.1249,43.75 627.2916,43.75" fill="#FFFFCC" style="stroke:#B58900;stroke-width:2.0833;"/><text fill="#000000" font-family="Dejavu Serif" font-size="14.5833" lengthAdjust="spacing" textLength="67.5206" x="593.5313" y="86.4228">translator</text></g><!--entity TranslatedBuild--><g class="entity" data-entity="TranslatedBuild" data-source-line="10" data-uid="ent0008" id="entity_TranslatedBuild"><path d="M230.1354,185.4896 L230.1354,210.5603 A7.8125,7.8125 0 0 0 237.9479,218.3728 L354.135,218.3728 A7.8125,7.8125 0 0 0 361.9475,210.5603 L361.9475,188.0938 L351.5308,177.6771 L237.9479,177.6771 A7.8125,7.8125 0 0 0 230.1354,185.4896" fill="#C9FFC9" style="stroke:#859900;stroke-width:2.0833;"/><path d="M351.5308,177.6771 L351.5308,180.2813 A7.8125,7.8125 0 0 0 359.3433,188.0938 L361.9475,188.0938" fill="#C9FFC9" style="stroke:#859900;stroke-width:2.0833;"/><text fill="#000000" font-family="Dejavu Serif" font-size="14.5833" lengthAdjust="spacing" textLength="72.7122" x="240.5521" y="203.6833">Translated</text><text fill="#000000" font-family="Dejavu Serif" font-size="14.5833" lengthAdjust="spacing" textLength="3.7917" x="313.2643" y="203.6833">&#160;</text><text fill="#000000" font-family="Dejavu Serif" font-size="14.5833" lengthAdjust="spacing" textLength="34.4749" x="317.056" y="203.6833">build</text></g><!--reverse link .po to translator--><g class="link" data-entity-1=".po" data-entity-2="translator" data-source-line="11" data-uid="lnk10" id="link_.po_translator"><path d="M563.3646,47.4375 C575.3333,47.4375 581.0521,47.4375 593.0208,47.4375" fill="none" id=".po-backto-translator" style="stroke:#657B83;stroke-width:2.0833;"/><polygon fill="#657B83" points="557.1146,47.4375,566.4896,51.6042,562.3229,47.4375,566.4896,43.2708,557.1146,47.4375" style="stroke:#657B83;stroke-width:2.0833;"/></g><!--link SphinxProject to .rst--><g class="link" data-entity-1="SphinxProject" data-entity-2=".rst" data-source-line="12" data-uid="lnk11" id="link_SphinxProject_.rst"><path d="M125.6042,47.4375 C137.6771,47.4375 143.5,47.4375 155.5625,47.4375" fill="none" id="SphinxProject-to-.rst" style="stroke:#657B83;stroke-width:2.0833;"/><polygon fill="#657B83" points="161.8125,47.4375,152.4375,43.2708,156.6042,47.4375,152.4375,51.6042,161.8125,47.4375" style="stroke:#657B83;stroke-width:2.0833;"/></g><!--link .rst to .pot--><g class="link" data-entity-1=".rst" data-entity-2=".pot" data-source-line="13" data-uid="lnk12" id="link_.rst_.pot"><path d="M205.2708,47.4375 C244.8542,47.4375 322.1979,47.4375 363.5313,47.4375" fill="none" id=".rst-to-.pot" style="stroke:#657B83;stroke-width:2.0833;"/><polygon fill="#657B83" points="369.7813,47.4375,360.4063,43.2708,364.5729,47.4375,360.4063,51.6042,369.7813,47.4375" style="stroke:#657B83;stroke-width:2.0833;"/><text fill="#000000" font-family="Dejavu Serif" font-size="13.5417" lengthAdjust="spacing" textLength="127.5355" x="224.0104" y="40.0386">sphinx-build gettext</text></g><!--link .pot to .po--><g class="link" data-entity-1=".pot" data-entity-2=".po" data-source-line="14" data-uid="lnk13" id="link_.pot_.po"><path d="M418.3125,47.4375 C445.2083,47.4375 481.8646,47.4375 507.6563,47.4375" fill="none" id=".pot-to-.po" style="stroke:#657B83;stroke-width:2.0833;"/><polygon fill="#657B83" points="513.9063,47.4375,504.5313,43.2708,508.6979,47.4375,504.5313,51.6042,513.9063,47.4375" style="stroke:#657B83;stroke-width:2.0833;"/><text fill="#000000" font-family="Dejavu Serif" font-size="13.5417" lengthAdjust="spacing" textLength="58.5271" x="436.9375" y="40.0386">Transifex</text></g><!--link .po to .mo--><g class="link" data-entity-1=".po" data-entity-2=".mo" data-source-line="15" data-uid="lnk14" id="link_.po_.mo"><path d="M520.3542,72.6667 C502.9167,100.2812 477.9108,139.9139 460.4733,167.5181" fill="none" id=".po-to-.mo" style="stroke:#657B83;stroke-width:2.0833;"/><polygon fill="#657B83" points="457.1354,172.8021,465.665,167.1013,459.917,168.3987,458.6196,162.6508,457.1354,172.8021" style="stroke:#657B83;stroke-width:2.0833;"/><text fill="#000000" font-family="Dejavu Serif" font-size="13.5417" lengthAdjust="spacing" textLength="49.6844" x="489.7917" y="137.4656">msgfmt</text></g><!--reverse link TranslatedBuild to .mo--><g class="link" data-entity-1="TranslatedBuild" data-entity-2=".mo" data-source-line="16" data-uid="lnk16" id="link_TranslatedBuild_.mo"><path d="M368.6563,198.0313 C387.1771,198.0313 399.4479,198.0313 417.9688,198.0313" fill="none" id="TranslatedBuild-backto-.mo" style="stroke:#657B83;stroke-width:2.0833;"/><polygon fill="#657B83" points="362.4063,198.0313,371.7813,202.1979,367.6146,198.0313,371.7813,193.8646,362.4063,198.0313" style="stroke:#657B83;stroke-width:2.0833;"/></g><!--link .rst to TranslatedBuild--><g class="link" data-entity-1=".rst" data-entity-2="TranslatedBuild" data-source-line="17" data-uid="lnk17" id="link_.rst_TranslatedBuild"><path d="M198.4792,68.1979 C220,96.6042 255.7163,143.7467 277.2684,172.2051" fill="none" id=".rst-to-TranslatedBuild" style="stroke:#657B83;stroke-width:2.0833;"/><polygon fill="#657B83" points="281.0417,177.1875,278.7033,167.1983,277.8972,173.0355,272.0601,172.2294,281.0417,177.1875" style="stroke:#657B83;stroke-width:2.0833;"/><text fill="#000000" font-family="Dejavu Serif" font-size="13.5417" lengthAdjust="spacing" textLength="163.8137" x="254.2188" y="137.4656">sphinx-build -Dlanguage=</text></g><!--SRC=[PKvBJiGm3Dtd52RxS00aM007G88Bk8sR2PDF5ITIZu-JTZJgiB7yFlPxJ_L2aO1R2eshugjFAnQCCE5yTIMtP3zoo0LgmSGYKQfABJuGVAyNdxQladzfhe0CUcTWtIczs_HpOTajLfoGErxp8px1A13dUiiCAEl-wkV0PD-R3tPatZcOEgdL_GfCC6yW_zMvgocTbbggZmDAAtW17aOpNe6ZMcaJLzTkBZ6DJB_GrXKmjWkn2v7T4iKlO4G_53xYx7z5RlKfsdm6JAwXerVz1m00]--></g></svg>