<svg xmlns="http://www.w3.org/2000/svg" xmlns:xlink="http://www.w3.org/1999/xlink" contentStyleType="text/css" data-diagram-type="DESCRIPTION" height="240.625px" preserveAspectRatio="none" style="width:663px;height:240px;" version="1.1" viewBox="0 0 663 240" width="663.5417px" zoomAndPan="magnify"><defs/><g><!--entity SphinxProject--><g class="entity" data-entity="SphinxProject" data-source-line="4" data-uid="ent0002" id="entity_SphinxProject"><path d="M6.25,34.8958 L6.25,59.9666 A7.8125,7.8125 0 0 0 14.0625,67.7791 L113.6684,67.7791 A7.8125,7.8125 0 0 0 121.4809,59.9666 L121.4809,37.5 L111.0642,27.0833 L14.0625,27.0833 A7.8125,7.8125 0 0 0 6.25,34.8958" fill="#C9FFC9" style="stroke:#859900;stroke-width:2.0833;"/><path d="M111.0642,27.0833 L111.0642,29.6875 A7.8125,7.8125 0 0 0 118.8767,37.5 L121.4809,37.5" fill="#C9FFC9" style="stroke:#859900;stroke-width:2.0833;"/><text fill="#000000" font-family="Dejavu Serif" font-size="14.5833" lengthAdjust="spacing" textLength="94.3976" x="16.6667" y="53.0895">SphinxProject</text></g><!--entity .rst--><g class="entity" data-entity=".rst" data-source-line="5" data-uid="ent0003" id="entity_.rst"><path d="M157.9792,34.8958 L157.9792,59.9666 A7.8125,7.8125 0 0 0 165.7917,67.7791 L193.1812,67.7791 A7.8125,7.8125 0 0 0 200.9937,59.9666 L200.9937,37.5 L190.577,27.0833 L165.7917,27.0833 A7.8125,7.8125 0 0 0 157.9792,34.8958" fill="#C9FFC9" style="stroke:#859900;stroke-width:2.0833;"/><path d="M190.577,27.0833 L190.577,29.6875 A7.8125,7.8125 0 0 0 198.3895,37.5 L200.9937,37.5" fill="#C9FFC9" style="stroke:#859900;stroke-width:2.0833;"/><text fill="#000000" font-family="Dejavu Serif" font-size="14.5833" lengthAdjust="spacing" textLength="22.1812" x="168.3958" y="53.0895">.rst</text></g><!--entity .pot--><g class="entity" data-entity=".pot" data-source-line="6" data-uid="ent0004" id="entity_.pot"><path d="M366.0104,32.8125 C366.0104,22.3958 389.9093,22.3958 389.9093,22.3958 C389.9093,22.3958 413.8082,22.3958 413.8082,32.8125 L413.8082,62.0499 C413.8082,72.4666 389.9093,72.4666 389.9093,72.4666 C389.9093,72.4666 366.0104,72.4666 366.0104,62.0499 L366.0104,32.8125" fill="#EFEFFF" style="stroke:#6C71C4;stroke-width:2.0833;"/><path d="M366.0104,32.8125 C366.0104,43.2292 389.9093,43.2292 389.9093,43.2292 C389.9093,43.2292 413.8082,43.2292 413.8082,32.8125" fill="none" style="stroke:#6C71C4;stroke-width:2.0833;"/><text fill="#000000" font-family="Dejavu Serif" font-size="14.5833" lengthAdjust="spacing" textLength="26.9645" x="376.4271" y="62.9853">.pot</text></g><!--entity .po--><g class="entity" data-entity=".po" data-source-line="7" data-uid="ent0005" id="entity_.po"><path d="M510.3021,32.8125 C510.3021,22.3958 531.5687,22.3958 531.5687,22.3958 C531.5687,22.3958 552.8353,22.3958 552.8353,32.8125 L552.8353,62.0499 C552.8353,72.4666 531.5687,72.4666 531.5687,72.4666 C531.5687,72.4666 510.3021,72.4666 510.3021,62.0499 L510.3021,32.8125" fill="#EFEFFF" style="stroke:#6C71C4;stroke-width:2.0833;"/><path d="M510.3021,32.8125 C510.3021,43.2292 531.5687,43.2292 531.5687,43.2292 C531.5687,43.2292 552.8353,43.2292 552.8353,32.8125" fill="none" style="stroke:#6C71C4;stroke-width:2.0833;"/><text fill="#000000" font-family="Dejavu Serif" font-size="14.5833" lengthAdjust="spacing" textLength="21.6999" x="520.7188" y="62.9853">.po</text></g><!--entity .mo--><g class="entity" data-entity=".mo" data-source-line="8" data-uid="ent0006" id="entity_.mo"><path d="M414.2188,183.4063 C414.2188,172.9896 437.8187,172.9896 437.8187,172.9896 C437.8187,172.9896 461.4187,172.9896 461.4187,183.4063 L461.4187,212.6437 C461.4187,223.0603 437.8187,223.0603 437.8187,223.0603 C437.8187,223.0603 414.2188,223.0603 414.2188,212.6437 L414.2188,183.4063" fill="#EFEFFF" style="stroke:#6C71C4;stroke-width:2.0833;"/><path d="M414.2188,183.4063 C414.2188,193.8229 437.8187,193.8229 437.8187,193.8229 C437.8187,193.8229 461.4187,193.8229 461.4187,183.4063" fill="none" style="stroke:#6C71C4;stroke-width:2.0833;"/><text fill="#000000" font-family="Dejavu Serif" font-size="14.5833" lengthAdjust="spacing" textLength="26.3666" x="424.6354" y="213.5791">.mo</text></g><!--entity translator--><g class="entity" data-entity="translator" data-source-line="9" data-uid="ent0007" id="entity_translator"><ellipse cx="623.2395" cy="22.9167" fill="#FFFFCC" rx="16.6667" ry="16.6667" style="stroke:#B58900;stroke-width:2.0833;"/><path d="M623.2395,43.75 C627.4061,43.75 630.5311,43.75 634.6978,39.5833 C643.0311,39.5833 651.3645,47.9167 651.3645,56.25 L651.3645,60.4167 C651.3645,64.5833 647.1978,68.75 643.0311,68.75 L603.4478,68.75 C599.2811,68.75 595.1145,64.5833 595.1145,60.4167 L595.1145,56.25 C595.1145,47.9167 603.4478,39.5833 611.7811,39.5833 C615.9478,43.75 619.0728,43.75 623.2395,43.75" fill="#FFFFCC" style="stroke:#B58900;stroke-width:2.0833;"/><text fill="#000000" font-family="Dejavu Serif" font-size="14.5833" lengthAdjust="spacing" textLength="67.5206" x="589.4792" y="86.4228">translator</text></g><!--entity TranslatedBuild--><g class="entity" data-entity="TranslatedBuild" data-source-line="10" data-uid="ent0008" id="entity_TranslatedBuild"><path d="M228.7708,185.4896 L228.7708,210.5603 A7.8125,7.8125 0 0 0 236.5833,218.3728 L349.4892,218.3728 A7.8125,7.8125 0 0 0 357.3017,210.5603 L357.3017,188.0938 L346.885,177.6771 L236.5833,177.6771 A7.8125,7.8125 0 0 0 228.7708,185.4896" fill="#C9FFC9" style="stroke:#859900;stroke-width:2.0833;"/><path d="M346.885,177.6771 L346.885,180.2813 A7.8125,7.8125 0 0 0 354.6975,188.0938 L357.3017,188.0938" fill="#C9FFC9" style="stroke:#859900;stroke-width:2.0833;"/><text fill="#000000" font-family="Dejavu Serif" font-size="14.5833" lengthAdjust="spacing" textLength="107.6975" x="239.1875" y="203.6833">TranslatedBuild</text></g><!--reverse link .po to translator--><g class="link" data-entity-1=".po" data-entity-2="translator" data-source-line="11" data-uid="lnk10" id="link_.po_translator"><path d="M559.3125,47.4375 C571.2813,47.4375 577,47.4375 588.9688,47.4375" fill="none" id=".po-backto-translator" style="stroke:#657B83;stroke-width:2.0833;"/><polygon fill="#657B83" points="553.0625,47.4375,562.4375,51.6042,558.2708,47.4375,562.4375,43.2708,553.0625,47.4375" style="stroke:#657B83;stroke-width:2.0833;"/></g><!--link SphinxProject to .rst--><g class="link" data-entity-1="SphinxProject" data-entity-2=".rst" data-source-line="12" data-uid="lnk11" id="link_SphinxProject_.rst"><path d="M121.6771,47.4375 C133.7188,47.4375 139.5208,47.4375 151.5625,47.4375" fill="none" id="SphinxProject-to-.rst" style="stroke:#657B83;stroke-width:2.0833;"/><polygon fill="#657B83" points="157.8125,47.4375,148.4375,43.2708,152.6042,47.4375,148.4375,51.6042,157.8125,47.4375" style="stroke:#657B83;stroke-width:2.0833;"/></g><!--link .rst to .pot--><g class="link" data-entity-1=".rst" data-entity-2=".pot" data-source-line="13" data-uid="lnk12" id="link_.rst_.pot"><path d="M201.2188,47.4375 C240.8021,47.4375 318.1458,47.4375 359.4792,47.4375" fill="none" id=".rst-to-.pot" style="stroke:#657B83;stroke-width:2.0833;"/><polygon fill="#657B83" points="365.7292,47.4375,356.3542,43.2708,360.5208,47.4375,356.3542,51.6042,365.7292,47.4375" style="stroke:#657B83;stroke-width:2.0833;"/><text fill="#000000" font-family="Dejavu Serif" font-size="13.5417" lengthAdjust="spacing" textLength="127.5355" x="219.9583" y="40.0386">sphinx-build gettext</text></g><!--link .pot to .po--><g class="link" data-entity-1=".pot" data-entity-2=".po" data-source-line="14" data-uid="lnk13" id="link_.pot_.po"><path d="M414.2604,47.4375 C441.1563,47.4375 477.8125,47.4375 503.6042,47.4375" fill="none" id=".pot-to-.po" style="stroke:#657B83;stroke-width:2.0833;"/><polygon fill="#657B83" points="509.8542,47.4375,500.4792,43.2708,504.6458,47.4375,500.4792,51.6042,509.8542,47.4375" style="stroke:#657B83;stroke-width:2.0833;"/><text fill="#000000" font-family="Dejavu Serif" font-size="13.5417" lengthAdjust="spacing" textLength="58.5271" x="432.8854" y="40.0386">Transifex</text></g><!--link .po to .mo--><g class="link" data-entity-1=".po" data-entity-2=".mo" data-source-line="15" data-uid="lnk14" id="link_.po_.mo"><path d="M516.3021,72.6667 C498.8646,100.2812 473.8587,139.9139 456.4212,167.5181" fill="none" id=".po-to-.mo" style="stroke:#657B83;stroke-width:2.0833;"/><polygon fill="#657B83" points="453.0833,172.8021,461.6129,167.1013,455.8649,168.3987,454.5675,162.6508,453.0833,172.8021" style="stroke:#657B83;stroke-width:2.0833;"/><text fill="#000000" font-family="Dejavu Serif" font-size="13.5417" lengthAdjust="spacing" textLength="49.6844" x="485.7396" y="137.4656">msgfmt</text></g><!--reverse link TranslatedBuild to .mo--><g class="link" data-entity-1="TranslatedBuild" data-entity-2=".mo" data-source-line="16" data-uid="lnk16" id="link_TranslatedBuild_.mo"><path d="M364.0417,198.0313 C382.6979,198.0313 395.0938,198.0313 413.75,198.0313" fill="none" id="TranslatedBuild-backto-.mo" style="stroke:#657B83;stroke-width:2.0833;"/><polygon fill="#657B83" points="357.7917,198.0313,367.1667,202.1979,363,198.0313,367.1667,193.8646,357.7917,198.0313" style="stroke:#657B83;stroke-width:2.0833;"/></g><!--link .rst to TranslatedBuild--><g class="link" data-entity-1=".rst" data-entity-2="TranslatedBuild" data-source-line="17" data-uid="lnk17" id="link_.rst_TranslatedBuild"><path d="M194.5729,68.1979 C216.2813,96.6042 252.3506,143.7634 274.1006,172.2217" fill="none" id=".rst-to-TranslatedBuild" style="stroke:#657B83;stroke-width:2.0833;"/><polygon fill="#657B83" points="277.8958,177.1875,275.5135,167.2087,274.7332,173.0494,268.8925,172.269,277.8958,177.1875" style="stroke:#657B83;stroke-width:2.0833;"/><text fill="#000000" font-family="Dejavu Serif" font-size="13.5417" lengthAdjust="spacing" textLength="163.8137" x="250.8125" y="137.4656">sphinx-build -Dlanguage=</text></g><!--SRC=[POvBRiCm34JtEWNZlNA00EaYxG42j1UWBLfMhOyXKO2FNyfn43ZT27oSqGnFF54WA3NwMbYLsSK5CmReSPXjJZMQp-HJ1iuOYqWKMQdHUOBkUvbSNEyv_TB0tRuyvoApGSOUI-CblVC1Wo0E_6pmAECZwcTdChVgl54l7RJN7o19wd02wDpMSe1gpuxI3nSecr7tBGaiCTCghgOzNMBQ6jr8QrD0coQ49eHYno1-WQtw_RH7dVcloD_kKAs_F4PRqTAr-mC0]--></g></svg>