<svg xmlns="http://www.w3.org/2000/svg" viewBox="0 0 10 7">
<path d="M8.12 3.27c.45-.32 1.06-.46 1.78-.73l-.31-.7c-1.28.23-2.43-.53-3.68-.7C4 .75 2.24 1.9.36 2.04v.76c1.87.41 3.64 1.26 5.6 1.02-1.21 1.21-2.84 2.64-4.69 2.07C.63 5.77.35 4.87.96 4.6c.27 1.04 1.57.3 1-.52C1.57 3.6.54 3.82.24 4.3c-.87 1.65.84 2.56 2.31 2.32 1.86-.25 3.29-1.71 4.53-3.02-.02.61.18 1.96-.41 2.5l.01.9c.43-.34.8-1.07.92-1.56.16-.63.04-1.02.1-1.53.05-.23.1-.41.42-.64zM1.9 2.39c.77-.23 1.58-.58 2.39-.66-.42 1.38 1.81 1.54 1.56 0 .64.16 1 .3 1.94.7-2.06 1.02-4.05.56-5.89-.04z"/>
<path d="M.36 1.81v-.8c.23 0 .84-.18 1.44-.35C2.8.36 4.05 0 4.95 0c1 0 2.05.34 2.82.58l.91.25c.62.07.98-.08.98-.08l.34.73c-.06.02-.56.24-1.41.15-.27-.03-.62-.14-1.06-.29C6.77 1.1 5.82.8 4.95.8c-.79 0-1.97.35-2.92.63-.74.21-1.32.38-1.67.38z"/>
</svg>
